<svg viewBox="0 0 100 100" xmlns="http://www.w3.org/2000/svg">
  <circle cx="50" cy="50" r="50" fill="#7D6118"/>
  <g fill="#F8EBDA">
    <path d="M50 15 L62 35 L50 35 Z" transform="rotate(0 50 50)"/>
    <path d="M50 15 L62 35 L50 35 Z" transform="rotate(60 50 50)"/>
    <path d="M50 15 L62 35 L50 35 Z" transform="rotate(120 50 50)"/>
    <path d="M50 15 L62 35 L50 35 Z" transform="rotate(180 50 50)"/>
    <path d="M50 15 L62 35 L50 35 Z" transform="rotate(240 50 50)"/>
    <path d="M50 15 L62 35 L50 35 Z" transform="rotate(300 50 50)"/>
  </g>
  <circle cx="50" cy="50" r="10" fill="#7D6118"/>
  <path d="M50 44 C46 41 41 44 41 49 C41 54 50 58 50 58 C50 58 59 54 59 49 C59 44 54 41 50 44" fill="#F8EBDA"/>
</svg>
