<svg viewBox="0 0 100 100" xmlns="http://www.w3.org/2000/svg">
  <circle cx="50" cy="50" r="48" fill="none" stroke="white" stroke-width="2"/>
  <g fill="white">
    <!-- Aperture blades -->
    <path d="M50 10 L65 35 L50 35 Z" transform="rotate(0 50 50)"/>
    <path d="M50 10 L65 35 L50 35 Z" transform="rotate(60 50 50)"/>
    <path d="M50 10 L65 35 L50 35 Z" transform="rotate(120 50 50)"/>
    <path d="M50 10 L65 35 L50 35 Z" transform="rotate(180 50 50)"/>
    <path d="M50 10 L65 35 L50 35 Z" transform="rotate(240 50 50)"/>
    <path d="M50 10 L65 35 L50 35 Z" transform="rotate(300 50 50)"/>
  </g>
  <!-- Center heart puzzle -->
  <circle cx="50" cy="50" r="12" fill="#7D6118"/>
  <path d="M50 42 C45 38 38 42 38 48 C38 54 50 60 50 60 C50 60 62 54 62 48 C62 42 55 38 50 42" fill="white" opacity="0.8"/>
</svg>
